<?xml version="1.0" encoding="UTF-8" standalone="no"?>
<svg
   xmlns:dc="http://purl.org/dc/elements/1.1/"
   xmlns:cc="http://creativecommons.org/ns#"
   xmlns:rdf="http://www.w3.org/1999/02/22-rdf-syntax-ns#"
   xmlns:svg="http://www.w3.org/2000/svg"
   xmlns="http://www.w3.org/2000/svg"
   xmlns:sodipodi="http://sodipodi.sourceforge.net/DTD/sodipodi-0.dtd"
   xmlns:inkscape="http://www.inkscape.org/namespaces/inkscape"
   version="1.2"
   width="144"
   height="144"
   viewBox="94 94 4064.0001 4064.0001"
   preserveAspectRatio="xMidYMid"
   xml:space="preserve"
   id="svg2"
   inkscape:version="0.91 r13725"
   sodipodi:docname="icon-error.svg"
   style="fill-rule:evenodd;stroke-width:28.22200012;stroke-linejoin:round"
   inkscape:export-filename="C:\Users\Yuji\Dropbox\prg\prj\keep-me-contributing\app\img\icon-error.png"
   inkscape:export-xdpi="90"
   inkscape:export-ydpi="90"><metadata
     id="metadata98"><rdf:RDF><cc:Work
         rdf:about=""><dc:format>image/svg+xml</dc:format><dc:type
           rdf:resource="http://purl.org/dc/dcmitype/StillImage" /><dc:title></dc:title></cc:Work></rdf:RDF></metadata><sodipodi:namedview
     pagecolor="#ffffff"
     bordercolor="#666666"
     borderopacity="0"
     objecttolerance="10"
     gridtolerance="10"
     guidetolerance="10"
     inkscape:pageopacity="1"
     inkscape:pageshadow="2"
     inkscape:window-width="1126"
     inkscape:window-height="589"
     id="namedview96"
     showgrid="false"
     units="px"
     inkscape:zoom="1.42"
     inkscape:cx="-78.707243"
     inkscape:cy="74.340458"
     inkscape:window-x="180"
     inkscape:window-y="39"
     inkscape:window-maximized="0"
     inkscape:current-layer="id1" /><defs
     class="ClipPathGroup"
     id="defs4"><clipPath
       id="presentation_clip_path"
       clipPathUnits="userSpaceOnUse"><rect
         x="94"
         y="94"
         width="1306"
         height="1306"
         id="rect7" /></clipPath></defs><defs
     class="TextShapeIndex"
     id="defs9" /><defs
     class="EmbeddedBulletChars"
     id="defs13" /><defs
     class="TextEmbeddedBitmaps"
     id="defs42" /><g
     id="id1"
     class="Slide"
     clip-path="url(#presentation_clip_path)"
     transform="matrix(3.1101201,0,0,3.1101201,-198.35128,-196.16693)"><path
       style="fill:#eef734;stroke:none;fill-opacity:1"
       inkscape:connector-curvature="0"
       id="path54"
       d="m 289,483 -195,0 0,-389 389,0 0,389 -194,0 z" /><g
       id="id4"><path
         d="m 289,942 -195,0 0,-389 389,0 0,389 -194,0 z"
         id="path59"
         inkscape:connector-curvature="0"
         style="fill:#edfca6;stroke:none;fill-opacity:1" /></g><g
       id="id5"><path
         d="m 289,1400 -195,0 0,-389 389,0 0,389 -194,0 z"
         id="path64"
         inkscape:connector-curvature="0"
         style="fill:#edfca6;stroke:none;fill-opacity:1" /></g><g
       id="id6"><path
         d="m 748,483 -195,0 0,-389 389,0 0,389 -194,0 z"
         id="path69"
         inkscape:connector-curvature="0"
         style="fill:#edfca6;stroke:none;fill-opacity:1" /></g><path
       style="fill:#edfca6;stroke:none;fill-opacity:1"
       inkscape:connector-curvature="0"
       id="path74"
       d="m 748,942 -195,0 0,-389 389,0 0,389 -194,0 z" /><path
       style="fill:#e8f218;stroke:none;fill-opacity:1"
       inkscape:connector-curvature="0"
       id="path79"
       d="m 748,1400 -195,0 0,-389 389,0 0,389 -194,0 z" /><g
       id="id9"><path
         d="m 1206,483 -195,0 0,-389 389,0 0,389 -194,0 z"
         id="path84"
         inkscape:connector-curvature="0"
         style="fill:#edfca6;stroke:none;fill-opacity:1" /></g><g
       id="id10"><path
         d="m 1206,942 -195,0 0,-389 389,0 0,389 -194,0 z"
         id="path89"
         inkscape:connector-curvature="0"
         style="fill:#d7e300;stroke:none;fill-opacity:1" /></g><g
       id="id11"><path
         d="m 1206,1400 -195,0 0,-389 389,0 0,389 -194,0 z"
         id="path94"
         inkscape:connector-curvature="0"
         style="fill:#e8f218;stroke:none;fill-opacity:1" /></g></g></svg>